<svg xmlns="http://www.w3.org/2000/svg" width="28" height="28" viewBox="0 0 28 28">
    <defs>
        <style>
            .cls-1{fill:#d9d9d9}.cls-2{clip-path:url(#clip-path)}.cls-3{fill:#c2c2c2}
        </style>
        <clipPath id="clip-path">
            <path id="Rectangle_1493" d="M0 0h28v28H0z" class="cls-1" data-name="Rectangle 1493" transform="translate(24 5.75)"/>
        </clipPath>
    </defs>
    <g id="icon_tabbar_recharge" transform="translate(-24 -5.75)">
        <g id="icon_recharge" class="cls-2">
            <g id="存款" transform="translate(24 5.75)">
                <g id="Group_50" data-name="Group 50">
                    <g id="Group_49" data-name="Group 49">
                        <path id="Path_101" d="M27.039 12.5a.82.82 0 1 0-1.16 1.16 1.63 1.63 0 0 1 .481 1.16 1.691 1.691 0 0 1-1.7 1.641h-.037v-.026a8.764 8.764 0 0 0-3-5.8 9.629 9.629 0 0 0-5.17-2.309v-.073a3.281 3.281 0 0 0-6.563 0v.037a8.994 8.994 0 0 0-1.472.256 5.658 5.658 0 0 0-4.262-1.929.821.821 0 0 0-.809.955l.622 3.728a8.875 8.875 0 0 0-1.945 3.555A2.465 2.465 0 0 0 0 17.281v1.641a2.466 2.466 0 0 0 2.413 2.461h.267a9.07 9.07 0 0 0 2.3 2.859v2.938a.82.82 0 0 0 .82.82h3.278a.82.82 0 0 0 .82-.82v-.88h4.922v.875a.82.82 0 0 0 .82.82h3.281a.82.82 0 0 0 .82-.82v-1.854a9.025 9.025 0 0 0 4.884-7.221h.039A3.344 3.344 0 0 0 27 17.149a3.225 3.225 0 0 0 1-2.329 3.26 3.26 0 0 0-.961-2.32zM13.18 6.617a1.641 1.641 0 1 1-1.641 1.641 1.642 1.642 0 0 1 1.641-1.641zm5.413 17.433a.82.82 0 0 0-.492.752v1.558h-1.64v-2.516a.82.82 0 0 0-1.641 0v.82H9.9v-.984a.82.82 0 0 0-1.641 0v2.68H6.617v-2.516a.821.821 0 0 0-.328-.656 7.419 7.419 0 0 1-2.339-2.953.82.82 0 0 0-.751-.492h-.738a.821.821 0 0 1-.82-.82v-1.642a.821.821 0 0 1 .82-.82h.219a.82.82 0 0 0 .8-.657 7.249 7.249 0 0 1 1.946-3.658.821.821 0 0 0 .225-.711L5.145 8.38a4.1 4.1 0 0 1 2.323 1.6.82.82 0 0 0 .923.3 7.355 7.355 0 0 1 1.955-.364A3.278 3.278 0 0 0 16 9.93a7.529 7.529 0 0 1 6.99 6.653 7.394 7.394 0 0 1-4.397 7.467z" class="cls-3" data-name="Path 101"/>
                    </g>
                </g>
                <g id="Group_52" data-name="Group 52">
                    <g id="Group_51" data-name="Group 51">
                        <circle id="Ellipse_7" cx=".82" cy=".82" r=".82" class="cls-3" data-name="Ellipse 7" transform="translate(4.977 14.82)"/>
                    </g>
                </g>
                <g id="Group_54" data-name="Group 54">
                    <g id="Group_53" data-name="Group 53">
                        <path id="Path_102" d="M15.641 13.18h-4.922a.82.82 0 0 0 0 1.641h4.922a.82.82 0 0 0 0-1.641z" class="cls-3" data-name="Path 102"/>
                    </g>
                </g>
                <g id="Group_56" data-name="Group 56">
                    <g id="Group_55" data-name="Group 55">
                        <path id="Path_103" d="M19.742 0a3.281 3.281 0 1 0 3.281 3.281A3.285 3.285 0 0 0 19.742 0zm0 4.922a1.641 1.641 0 1 1 1.641-1.641 1.642 1.642 0 0 1-1.641 1.641z" class="cls-3" data-name="Path 103"/>
                    </g>
                </g>
            </g>
        </g>
    </g>
</svg>
