<svg xmlns="http://www.w3.org/2000/svg" width="28" height="28" viewBox="0 0 28 28">
    <defs>
        <style>
            .cls-1{fill:#d9d9d9}.cls-2{clip-path:url(#clip-path)}.cls-3{fill:#c2c2c2}
        </style>
        <clipPath id="clip-path">
            <path id="Rectangle_1580" d="M0 0h28v28H0z" class="cls-1" data-name="Rectangle 1580" transform="translate(99 5.75)"/>
        </clipPath>
    </defs>
    <g id="icon_tabbar_user" transform="translate(-99 -5.75)">
        <g id="Mask_Group_43" class="cls-2" data-name="Mask Group 43">
            <g id="登入" transform="translate(101.32 5.75)">
                <path id="Path_431" d="M11.5 13.488a6.526 6.526 0 0 0 4.768-1.976 6.526 6.526 0 0 0 1.976-4.768 6.526 6.526 0 0 0-1.976-4.768A6.527 6.527 0 0 0 11.5 0a6.525 6.525 0 0 0-4.765 1.976A6.526 6.526 0 0 0 4.76 6.744a6.526 6.526 0 0 0 1.976 4.768 6.528 6.528 0 0 0 4.764 1.976zM7.9 3.136a4.874 4.874 0 0 1 3.6-1.495 4.876 4.876 0 0 1 3.608 1.495 4.876 4.876 0 0 1 1.5 3.608 4.875 4.875 0 0 1-1.5 3.608 4.875 4.875 0 0 1-3.608 1.5 4.876 4.876 0 0 1-3.608-1.5A4.875 4.875 0 0 1 6.4 6.744a4.875 4.875 0 0 1 1.5-3.608zm0 0" class="cls-3" data-name="Path 431"/>
                <path id="Path_432" d="M23.3 21.531a16.658 16.658 0 0 0-.227-1.769 13.939 13.939 0 0 0-.435-1.779 8.787 8.787 0 0 0-.731-1.659 6.254 6.254 0 0 0-1.1-1.437 4.862 4.862 0 0 0-1.584-1 5.474 5.474 0 0 0-2.022-.366 2.052 2.052 0 0 0-1.1.465c-.329.214-.713.462-1.142.736a6.543 6.543 0 0 1-1.477.651 5.737 5.737 0 0 1-3.614 0 6.523 6.523 0 0 1-1.468-.646c-.425-.272-.809-.519-1.143-.737a2.05 2.05 0 0 0-1.1-.465 5.467 5.467 0 0 0-2.022.366 4.858 4.858 0 0 0-1.584 1 6.255 6.255 0 0 0-1.1 1.437 8.8 8.8 0 0 0-.731 1.659 13.973 13.973 0 0 0-.435 1.779 16.544 16.544 0 0 0-.227 1.77C.019 22.066 0 22.622 0 23.185A4.649 4.649 0 0 0 1.381 26.7 4.97 4.97 0 0 0 4.939 28h13.482a4.971 4.971 0 0 0 3.558-1.3 4.648 4.648 0 0 0 1.381-3.518c0-.564-.019-1.121-.057-1.654zm-2.456 3.983a3.347 3.347 0 0 1-2.427.846H4.939a3.347 3.347 0 0 1-2.427-.846 3.036 3.036 0 0 1-.871-2.329c0-.525.017-1.043.052-1.54a14.922 14.922 0 0 1 .207-1.594 12.323 12.323 0 0 1 .383-1.568 7.167 7.167 0 0 1 .6-1.349 4.636 4.636 0 0 1 .81-1.062 3.225 3.225 0 0 1 1.054-.655 3.776 3.776 0 0 1 1.292-.249c.057.031.16.089.326.2.337.22.726.471 1.156.745a8.13 8.13 0 0 0 1.854.829 7.376 7.376 0 0 0 4.623 0 8.139 8.139 0 0 0 1.856-.829c.44-.281.818-.525 1.155-.745.166-.108.268-.166.326-.2a3.778 3.778 0 0 1 1.293.249 3.23 3.23 0 0 1 1.054.655 4.624 4.624 0 0 1 .81 1.062 7.143 7.143 0 0 1 .6 1.349 12.3 12.3 0 0 1 .383 1.568 15.048 15.048 0 0 1 .205 1.594c.035.5.052 1.013.053 1.539a3.036 3.036 0 0 1-.872 2.329zm0 0" class="cls-3" data-name="Path 432"/>
            </g>
        </g>
    </g>
</svg>
