<svg xmlns="http://www.w3.org/2000/svg" width="28" height="28" viewBox="0 0 28 28">
    <defs>
        <style>
            .cls-1{fill:#d9d9d9}.cls-2{clip-path:url(#clip-path)}.cls-3{fill:#c2c2c2}
        </style>
        <clipPath id="clip-path">
            <path id="Rectangle_1494" d="M0 0h28v28H0z" class="cls-1" data-name="Rectangle 1494" transform="translate(99 5.75)"/>
        </clipPath>
    </defs>
    <g id="icon_tabbar_lobby" transform="translate(-99 -5.75)">
        <g id="icon_lobby" class="cls-2">
            <g id="大廳" transform="translate(99 5.75)">
                <path id="Union_6" d="M-1534.9-785a.82.82 0 0 1-.821-.82v-10.913a2.458 2.458 0 0 1-2.56-.581 2.458 2.458 0 0 1 0-3.479l11.6-11.487a2.458 2.458 0 0 1 3.478 0l2.362 2.362v-.622a.82.82 0 0 1 .82-.82h3.281a.821.821 0 0 1 .821.82v5.54l4.2 4.2a2.442 2.442 0 0 1 .721 1.74 2.442 2.442 0 0 1-.721 1.74 2.458 2.458 0 0 1-2.56.581v10.913a.82.82 0 0 1-.82.82zm13.234-9.953a.821.821 0 0 1 .821.821v7.492h4.921v-11.395l-9.026-9.026-9.13 9.034v11.387h5.031v-7.492a.821.821 0 0 1 .821-.821zm-5.742 8.312h4.922v-6.672h-4.922zm3.041-22.158l10.324 10.324a.819.819 0 0 0 1.16 0 .821.821 0 0 0 0-1.159l-11.484-11.484a.819.819 0 0 0-1.16 0l-11.6 11.487a.818.818 0 0 0 0 1.156.819.819 0 0 0 1.159 0c.4-.4 9.95-9.846 10.437-10.327a.816.816 0 0 1 .577-.238.817.817 0 0 1 .589.24zm5.162.522l1.641 1.641v-3.083h-1.641zm-9.023 8.4a3.284 3.284 0 0 1 3.281-3.281 3.284 3.284 0 0 1 3.281 3.281 3.284 3.284 0 0 1-3.281 3.281 3.284 3.284 0 0 1-3.279-3.278zm1.641 0a1.642 1.642 0 0 0 1.641 1.641 1.642 1.642 0 0 0 1.64-1.641 1.642 1.642 0 0 0-1.64-1.641 1.642 1.642 0 0 0-1.639 1.644z" class="cls-3" data-name="Union 6" transform="translate(1539 813)"/>
            </g>
        </g>
    </g>
</svg>
