<svg xmlns="http://www.w3.org/2000/svg" width="28" height="28" viewBox="0 0 28 28">
    <defs>
        <style>
            .cls-1{fill:#d9d9d9}.cls-2{clip-path:url(#clip-path)}.cls-3{fill:#c2c2c2}
        </style>
        <clipPath id="clip-path">
            <path id="Rectangle_1494" d="M0 0h28v28H0z" class="cls-1" data-name="Rectangle 1494" transform="translate(99 5.75)"/>
        </clipPath>
    </defs>
    <g id="icon_tabbar_offer" transform="translate(-99 -5.75)">
        <g id="icon_offer" class="cls-2">
            <g id="優惠活動" transform="translate(99 5.75)">
                <g id="Group_95" data-name="Group 95">
                    <path id="Path_163" d="M25.539 6.562H22.2A4.1 4.1 0 0 0 18.922 0a3.681 3.681 0 0 0-3.162 1.536A15.926 15.926 0 0 0 14 5.184a15.925 15.925 0 0 0-1.76-3.648A3.681 3.681 0 0 0 9.078 0 4.1 4.1 0 0 0 5.8 6.562H2.461A2.464 2.464 0 0 0 0 9.023v1.641a2.465 2.465 0 0 0 1.641 2.32v12.555A2.464 2.464 0 0 0 4.1 28h19.8a2.464 2.464 0 0 0 2.461-2.461V12.984A2.465 2.465 0 0 0 28 10.664V9.023a2.464 2.464 0 0 0-2.461-2.461zm-10.033-.725c1.257-3.188 1.734-4.2 3.416-4.2a2.461 2.461 0 1 1 0 4.922h-3.7l.284-.722zm-6.428-4.2c1.682 0 2.159 1.009 3.416 4.2.091.23.186.473.287.725h-3.7a2.461 2.461 0 1 1 0-4.922zm1.641 24.719H4.1a.821.821 0 0 1-.82-.82V13.125h7.438zm0-14.875H2.461a.821.821 0 0 1-.82-.82V9.023a.821.821 0 0 1 .82-.82h8.258zm4.922 14.875h-3.282V8.2h3.281zm9.078-.82a.821.821 0 0 1-.82.82h-6.618V13.125h7.438zm1.641-14.875a.821.821 0 0 1-.82.82h-8.259V8.2h8.258a.821.821 0 0 1 .82.82z" class="cls-3" data-name="Path 163"/>
                </g>
            </g>
        </g>
    </g>
</svg>
