<svg xmlns="http://www.w3.org/2000/svg" width="40" height="40" viewBox="0 0 40 40">
    <defs>
        <style>
            .cls-1{fill:#d1d1d1}.cls-2{clip-path:url(#clip-path)}.cls-3{fill:url(#linear-gradient)}
        </style>
        <clipPath id="clip-path">
            <path id="Rectangle_1469" d="M0 0h40v40H0z" class="cls-1" data-name="Rectangle 1469" transform="translate(214 213)"/>
        </clipPath>
        <linearGradient id="linear-gradient" x1=".5" x2=".5" y2="1" gradientUnits="objectBoundingBox">
            <stop offset="0" stop-color="#84b2ef"/>
            <stop offset="1" stop-color="#535bc7"/>
        </linearGradient>
    </defs>
    <g id="icon_index_result_record" data-name="icon_index_result record" transform="translate(-214 -213)">
        <g id="icon_index_result_record-2" class="cls-2" data-name="icon_index_result record">
            <path id="開獎" d="M25.781 11.8h-.053A12.962 12.962 0 0 0 12.891 0 12.961 12.961 0 0 0 .053 11.8H0V40h25.781V18.828H29.3a3.52 3.52 0 0 0 3.516-3.516v-8.4a3.521 3.521 0 0 0 2.344-3.314 3.516 3.516 0 1 0-7.031 0 3.521 3.521 0 0 0 2.344 3.314V11.8zm5.859-9.453a1.245 1.245 0 0 1 1.172 1.25 1.172 1.172 0 0 1-2.344 0 1.245 1.245 0 0 1 1.173-1.253zM2.729 14.141h8.99v3.486c-4.538-.233-7.894-1.794-8.99-3.486zm11.334 0h8.99c-1.1 1.691-4.452 3.254-8.99 3.487zm8.99-2.343h-8.99V8.311c4.537.233 7.894 1.795 8.99 3.489zm-11.334 0h-8.99c1.1-1.691 4.452-3.253 8.99-3.486zM4.08 18.16a19.436 19.436 0 0 0 7.639 1.812v3.478a10.567 10.567 0 0 1-8.156-5.565q.251.141.518.275zm7.639 7.646a12.976 12.976 0 0 0 2.344 0v2.4h-2.344zm2.344-2.356v-3.478A19.435 19.435 0 0 0 21.7 18.16q.267-.134.518-.275a10.567 10.567 0 0 1-8.156 5.565zm8.183-15.382q-.264-.149-.545-.29a19.435 19.435 0 0 0-7.639-1.812V2.41a10.569 10.569 0 0 1 8.184 5.658zM11.719 2.41v3.556A19.435 19.435 0 0 0 4.08 7.777q-.282.141-.545.29a10.569 10.569 0 0 1 8.184-5.657zm0 34.075a1.172 1.172 0 1 1 1.172 1.172 1.173 1.173 0 0 1-1.172-1.173zm4.481 1.171a3.516 3.516 0 1 0-6.628 0H2.344V20.372a12.937 12.937 0 0 0 7.031 5v5.175h7.031V28.2h4.688v-2.341h-4.688v-.487a12.937 12.937 0 0 0 7.031-5v17.284zm14.269-22.344a1.173 1.173 0 0 1-1.169 1.172h-3.519v-2.343h4.688zm0 0" class="cls-3" transform="translate(218.422 213)"/>
        </g>
    </g>
</svg>
