<svg xmlns="http://www.w3.org/2000/svg" width="28" height="28" viewBox="0 0 28 28">
    <defs>
        <style>
            .cls-1{fill:#d9d9d9}.cls-2{clip-path:url(#clip-path)}.cls-3{fill:#c2c2c2}
        </style>
        <clipPath id="clip-path">
            <path id="Rectangle_1494" d="M0 0h28v28H0z" class="cls-1" data-name="Rectangle 1494" transform="translate(99 5.75)"/>
        </clipPath>
    </defs>
    <g id="icon_tabbar_online" transform="translate(-99 -5.75)">
        <g id="icon_online" class="cls-2">
            <g id="客服" transform="translate(99 5.75)">
                <path id="Path_106" d="M21.849 9.607a.82.82 0 1 1-.82-.82.82.82 0 0 1 .82.82zm0 0" class="cls-3" data-name="Path 106"/>
                <path id="Path_107" d="M21.028 2.636a2.58 2.58 0 0 0-2.577 2.577.82.82 0 1 0 1.641 0 .937.937 0 1 1 .937.938.82.82 0 0 0 0 1.641 2.578 2.578 0 1 0 0-5.155zm0 0" class="cls-3" data-name="Path 107"/>
                <path id="Path_108" d="M.82 13.063h8.787a.82.82 0 0 0 .82-.82v-1.758a5.211 5.211 0 0 0-2.757-4.6 3.456 3.456 0 1 0-4.914 0A5.213 5.213 0 0 0 0 10.485v1.757a.82.82 0 0 0 .82.82zM3.4 3.456a1.816 1.816 0 1 1 1.813 1.816A1.818 1.818 0 0 1 3.4 3.456zm-1.759 7.029a3.573 3.573 0 1 1 7.146 0v.937H1.641zm0 0" class="cls-3" data-name="Path 108"/>
                <path id="Path_109" d="M25.243 20.821a3.456 3.456 0 1 0-4.914 0 5.213 5.213 0 0 0-2.757 4.6v1.759a.82.82 0 0 0 .82.82h8.788a.82.82 0 0 0 .82-.82v-1.758a5.211 5.211 0 0 0-2.757-4.6zm-4.272-2.428a1.816 1.816 0 1 1 1.816 1.816 1.818 1.818 0 0 1-1.816-1.816zm5.388 7.966h-7.146v-.937a3.573 3.573 0 0 1 7.146 0zm0 0" class="cls-3" data-name="Path 109"/>
                <path id="Path_110" d="M24.544 0h-7.029a3.454 3.454 0 0 0-3.456 3.456v5l-2.472 3.3a.821.821 0 0 0 .656 1.312h12.3A3.46 3.46 0 0 0 28 9.607V3.456A3.46 3.46 0 0 0 24.544 0zm1.816 9.607a1.818 1.818 0 0 1-1.816 1.816H13.883l1.652-2.2a.82.82 0 0 0 .164-.492V3.456a1.814 1.814 0 0 1 1.816-1.816h7.029a1.818 1.818 0 0 1 1.816 1.816zm0 0" class="cls-3" data-name="Path 110"/>
                <path id="Path_111" d="M15.757 14.937H3.456A3.46 3.46 0 0 0 0 18.393v6.151A3.46 3.46 0 0 0 3.456 28h7.029a3.454 3.454 0 0 0 3.456-3.456v-5l2.472-3.3a.82.82 0 0 0-.656-1.312zm-3.292 3.843a.82.82 0 0 0-.164.492v5.272a1.815 1.815 0 0 1-1.816 1.816H3.456a1.818 1.818 0 0 1-1.816-1.816v-6.151a1.818 1.818 0 0 1 1.816-1.816h10.66zm0 0" class="cls-3" data-name="Path 111"/>
                <path id="Path_112" d="M4.335 20.532h5.272a.82.82 0 1 0 0-1.641H4.335a.82.82 0 0 0 0 1.641zm0 0" class="cls-3" data-name="Path 112"/>
                <path id="Path_113" d="M4.335 24.046h2.636a.82.82 0 0 0 0-1.641H4.335a.82.82 0 0 0 0 1.641zm0 0" class="cls-3" data-name="Path 113"/>
            </g>
        </g>
    </g>
</svg>
