<svg xmlns="http://www.w3.org/2000/svg" width="16" height="16" viewBox="0 0 16 16">
    <defs>
        <style>
            .cls-1{fill:#fff}.cls-2{clip-path:url(#clip-path)}.cls-3{fill:#feb433}
        </style>
        <clipPath id="clip-path">
            <path id="Rectangle_1523" d="M0 0h16v16H0z" class="cls-1" data-name="Rectangle 1523" transform="translate(761 -107)"/>
        </clipPath>
    </defs>
    <g id="icon_user" transform="translate(-343 -16)">
        <g id="Mask_Group_25" class="cls-2" data-name="Mask Group 25" transform="translate(-418 123)">
            <g id="user" transform="translate(762.326 -107)">
                <path id="Path_118" d="M6.574 7.707A3.729 3.729 0 0 0 9.3 6.578a3.729 3.729 0 0 0 1.129-2.725A3.729 3.729 0 0 0 9.3 1.129 3.73 3.73 0 0 0 6.574 0a3.729 3.729 0 0 0-2.725 1.129A3.729 3.729 0 0 0 2.72 3.854a3.729 3.729 0 0 0 1.129 2.724 3.73 3.73 0 0 0 2.725 1.129z" class="cls-3" data-name="Path 118"/>
                <path id="Path_119" d="M13.317 12.3a9.519 9.519 0 0 0-.13-1.011 7.965 7.965 0 0 0-.249-1.016 5.021 5.021 0 0 0-.418-.948 3.574 3.574 0 0 0-.63-.821 2.778 2.778 0 0 0-.905-.569 3.128 3.128 0 0 0-1.155-.206 1.173 1.173 0 0 0-.626.266c-.188.122-.407.264-.652.421a3.739 3.739 0 0 1-.844.372 3.278 3.278 0 0 1-2.065 0 3.728 3.728 0 0 1-.843-.373c-.243-.155-.463-.3-.653-.421a1.172 1.172 0 0 0-.626-.266 3.124 3.124 0 0 0-1.155.209 2.776 2.776 0 0 0-.905.569 3.574 3.574 0 0 0-.63.821 5.031 5.031 0 0 0-.418.948 7.984 7.984 0 0 0-.249 1.016A9.454 9.454 0 0 0 .032 12.3c-.021.306-.032.624-.032.945a2.657 2.657 0 0 0 .789 2.01A2.84 2.84 0 0 0 2.822 16h7.7a2.841 2.841 0 0 0 2.033-.742 2.656 2.656 0 0 0 .789-2.01c0-.322-.011-.64-.032-.945z" class="cls-3" data-name="Path 119"/>
            </g>
        </g>
    </g>
</svg>
